{
 "cells": [
  {
   "cell_type": "code",
   "execution_count": 2,
   "metadata": {},
   "outputs": [
    {
     "name": "stdout",
     "output_type": "stream",
     "text": [
      "Requirement already satisfied: ffmpeg-python in /workspace/.pyenv_mirror/user/current/lib/python3.12/site-packages (0.2.0)\n",
      "Requirement already satisfied: future in /workspace/.pyenv_mirror/user/current/lib/python3.12/site-packages (from ffmpeg-python) (1.0.0)\n",
      "Note: you may need to restart the kernel to use updated packages.\n"
     ]
    },
    {
     "name": "stderr",
     "output_type": "stream",
     "text": [
      "UsageError: Line magic function `%apt-get` not found.\n"
     ]
    }
   ],
   "source": [
    "%pip install ffmpeg-python\n",
    "\n",
    "%apt-get update\n",
    "%apt-get install -y ffmpeg"
   ]
  },
  {
   "cell_type": "code",
   "execution_count": 3,
   "metadata": {},
   "outputs": [
    {
     "name": "stderr",
     "output_type": "stream",
     "text": [
      "ffmpeg version 4.4.2-0ubuntu0.22.04.1 Copyright (c) 2000-2021 the FFmpeg developers\n",
      "  built with gcc 11 (Ubuntu 11.2.0-19ubuntu1)\n",
      "  configuration: --prefix=/usr --extra-version=0ubuntu0.22.04.1 --toolchain=hardened --libdir=/usr/lib/x86_64-linux-gnu --incdir=/usr/include/x86_64-linux-gnu --arch=amd64 --enable-gpl --disable-stripping --enable-gnutls --enable-ladspa --enable-libaom --enable-libass --enable-libbluray --enable-libbs2b --enable-libcaca --enable-libcdio --enable-libcodec2 --enable-libdav1d --enable-libflite --enable-libfontconfig --enable-libfreetype --enable-libfribidi --enable-libgme --enable-libgsm --enable-libjack --enable-libmp3lame --enable-libmysofa --enable-libopenjpeg --enable-libopenmpt --enable-libopus --enable-libpulse --enable-librabbitmq --enable-librubberband --enable-libshine --enable-libsnappy --enable-libsoxr --enable-libspeex --enable-libsrt --enable-libssh --enable-libtheora --enable-libtwolame --enable-libvidstab --enable-libvorbis --enable-libvpx --enable-libwebp --enable-libx265 --enable-libxml2 --enable-libxvid --enable-libzimg --enable-libzmq --enable-libzvbi --enable-lv2 --enable-omx --enable-openal --enable-opencl --enable-opengl --enable-sdl2 --enable-pocketsphinx --enable-librsvg --enable-libmfx --enable-libdc1394 --enable-libdrm --enable-libiec61883 --enable-chromaprint --enable-frei0r --enable-libx264 --enable-shared\n",
      "  libavutil      56. 70.100 / 56. 70.100\n",
      "  libavcodec     58.134.100 / 58.134.100\n",
      "  libavformat    58. 76.100 / 58. 76.100\n",
      "  libavdevice    58. 13.100 / 58. 13.100\n",
      "  libavfilter     7.110.100 /  7.110.100\n",
      "  libswscale      5.  9.100 /  5.  9.100\n",
      "  libswresample   3.  9.100 /  3.  9.100\n",
      "  libpostproc    55.  9.100 / 55.  9.100\n",
      "Input #0, matroska,webm, from 'a.mkv':\n",
      "  Metadata:\n",
      "    encoder         : libebml v1.4.5 + libmatroska v1.7.1\n",
      "    creation_time   : 2024-08-18T15:01:56.000000Z\n",
      "  Duration: 00:23:50.98, start: 0.000000, bitrate: 2194 kb/s\n",
      "  Chapters:\n",
      "    Chapter #0:0: start 0.000000, end 11.000000\n",
      "      Metadata:\n",
      "        title           : Prologue\n",
      "    Chapter #0:1: start 11.000000, end 101.000000\n",
      "      Metadata:\n",
      "        title           : Opening\n",
      "    Chapter #0:2: start 101.000000, end 120.000000\n",
      "      Metadata:\n",
      "        title           : Episode\n",
      "    Chapter #0:3: start 120.000000, end 1276.000000\n",
      "      Metadata:\n",
      "        title           : Recap End\n",
      "    Chapter #0:4: start 1276.000000, end 1306.000000\n",
      "      Metadata:\n",
      "        title           : Credits Start\n",
      "    Chapter #0:5: start 1306.000000, end 1396.000000\n",
      "      Metadata:\n",
      "        title           : Credits End\n",
      "    Chapter #0:6: start 1396.000000, end 1430.976000\n",
      "      Metadata:\n",
      "        title           : Preview Start\n",
      "  Stream #0:0(jpn): Video: h264 (Main), yuv420p(tv, bt709, progressive), 848x480 [SAR 160:159 DAR 16:9], SAR 853:848 DAR 853:480, 23.98 fps, 23.98 tbr, 1k tbn, 47.95 tbc (default)\n",
      "    Metadata:\n",
      "      BPS             : 1993389\n",
      "      DURATION        : 00:23:50.931000000\n",
      "      NUMBER_OF_FRAMES: 34308\n",
      "      NUMBER_OF_BYTES : 356550278\n",
      "      _STATISTICS_WRITING_APP: mkvmerge v86.0 ('Winter') 64-bit\n",
      "      _STATISTICS_WRITING_DATE_UTC: 2024-08-18 15:01:56\n",
      "      _STATISTICS_TAGS: BPS DURATION NUMBER_OF_FRAMES NUMBER_OF_BYTES\n",
      "  Stream #0:1(jpn): Audio: aac (LC), 44100 Hz, stereo, fltp (default)\n",
      "    Metadata:\n",
      "      BPS             : 128000\n",
      "      DURATION        : 00:23:50.976000000\n",
      "      NUMBER_OF_FRAMES: 61627\n",
      "      NUMBER_OF_BYTES : 22895619\n",
      "      _STATISTICS_WRITING_APP: mkvmerge v86.0 ('Winter') 64-bit\n",
      "      _STATISTICS_WRITING_DATE_UTC: 2024-08-18 15:01:56\n",
      "      _STATISTICS_TAGS: BPS DURATION NUMBER_OF_FRAMES NUMBER_OF_BYTES\n",
      "  Stream #0:2(eng): Subtitle: ass (default)\n",
      "    Metadata:\n",
      "      title           : English\n",
      "      BPS             : 138\n",
      "      DURATION        : 00:23:34.780000000\n",
      "      NUMBER_OF_FRAMES: 377\n",
      "      NUMBER_OF_BYTES : 24465\n",
      "      _STATISTICS_WRITING_APP: mkvmerge v86.0 ('Winter') 64-bit\n",
      "      _STATISTICS_WRITING_DATE_UTC: 2024-08-18 15:01:56\n",
      "      _STATISTICS_TAGS: BPS DURATION NUMBER_OF_FRAMES NUMBER_OF_BYTES\n",
      "  Stream #0:3(por): Subtitle: ass\n",
      "    Metadata:\n",
      "      title           : Portuguese(Brazil)\n",
      "      BPS             : 154\n",
      "      DURATION        : 00:23:34.740000000\n",
      "      NUMBER_OF_FRAMES: 366\n",
      "      NUMBER_OF_BYTES : 27333\n",
      "      _STATISTICS_WRITING_APP: mkvmerge v86.0 ('Winter') 64-bit\n",
      "      _STATISTICS_WRITING_DATE_UTC: 2024-08-18 15:01:56\n",
      "      _STATISTICS_TAGS: BPS DURATION NUMBER_OF_FRAMES NUMBER_OF_BYTES\n",
      "  Stream #0:4(spa): Subtitle: ass\n",
      "    Metadata:\n",
      "      title           : Spanish(Latin_America)\n",
      "      BPS             : 125\n",
      "      DURATION        : 00:23:39.670000000\n",
      "      NUMBER_OF_FRAMES: 335\n",
      "      NUMBER_OF_BYTES : 22350\n",
      "      _STATISTICS_WRITING_APP: mkvmerge v86.0 ('Winter') 64-bit\n",
      "      _STATISTICS_WRITING_DATE_UTC: 2024-08-18 15:01:56\n",
      "      _STATISTICS_TAGS: BPS DURATION NUMBER_OF_FRAMES NUMBER_OF_BYTES\n",
      "  Stream #0:5(spa): Subtitle: ass\n",
      "    Metadata:\n",
      "      title           : Spanish\n",
      "      BPS             : 126\n",
      "      DURATION        : 00:23:39.670000000\n",
      "      NUMBER_OF_FRAMES: 335\n",
      "      NUMBER_OF_BYTES : 22513\n",
      "      _STATISTICS_WRITING_APP: mkvmerge v86.0 ('Winter') 64-bit\n",
      "      _STATISTICS_WRITING_DATE_UTC: 2024-08-18 15:01:56\n",
      "      _STATISTICS_TAGS: BPS DURATION NUMBER_OF_FRAMES NUMBER_OF_BYTES\n",
      "  Stream #0:6(ara): Subtitle: ass\n",
      "    Metadata:\n",
      "      title           : Arabic\n",
      "      BPS             : 159\n",
      "      DURATION        : 00:23:32.500000000\n",
      "      NUMBER_OF_FRAMES: 337\n",
      "      NUMBER_OF_BYTES : 28082\n",
      "      _STATISTICS_WRITING_APP: mkvmerge v86.0 ('Winter') 64-bit\n",
      "      _STATISTICS_WRITING_DATE_UTC: 2024-08-18 15:01:56\n",
      "      _STATISTICS_TAGS: BPS DURATION NUMBER_OF_FRAMES NUMBER_OF_BYTES\n",
      "  Stream #0:7(fre): Subtitle: ass\n",
      "    Metadata:\n",
      "      title           : French\n",
      "      BPS             : 126\n",
      "      DURATION        : 00:21:59.860000000\n",
      "      NUMBER_OF_FRAMES: 305\n",
      "      NUMBER_OF_BYTES : 20793\n",
      "      _STATISTICS_WRITING_APP: mkvmerge v86.0 ('Winter') 64-bit\n",
      "      _STATISTICS_WRITING_DATE_UTC: 2024-08-18 15:01:56\n",
      "      _STATISTICS_TAGS: BPS DURATION NUMBER_OF_FRAMES NUMBER_OF_BYTES\n",
      "  Stream #0:8(ger): Subtitle: ass\n",
      "    Metadata:\n",
      "      title           : German\n",
      "      BPS             : 171\n",
      "      DURATION        : 00:23:34.890000000\n",
      "      NUMBER_OF_FRAMES: 370\n",
      "      NUMBER_OF_BYTES : 30397\n",
      "      _STATISTICS_WRITING_APP: mkvmerge v86.0 ('Winter') 64-bit\n",
      "      _STATISTICS_WRITING_DATE_UTC: 2024-08-18 15:01:56\n",
      "      _STATISTICS_TAGS: BPS DURATION NUMBER_OF_FRAMES NUMBER_OF_BYTES\n",
      "  Stream #0:9: Attachment: ttf\n",
      "    Metadata:\n",
      "      filename        : AdLibBT.ttf\n",
      "      mimetype        : application/x-truetype-font\n",
      "  Stream #0:10: Attachment: ttf\n",
      "    Metadata:\n",
      "      filename        : AdLibRg.ttf\n",
      "      mimetype        : application/x-truetype-font\n",
      "  Stream #0:11: Attachment: ttf\n",
      "    Metadata:\n",
      "      filename        : arialbd_1.ttf\n",
      "      mimetype        : application/x-truetype-font\n",
      "  Stream #0:12: Attachment: ttf\n",
      "    Metadata:\n",
      "      filename        : arialbi_1.ttf\n",
      "      mimetype        : application/x-truetype-font\n",
      "  Stream #0:13: Attachment: ttf\n",
      "    Metadata:\n",
      "      filename        : ariali_1.ttf\n",
      "      mimetype        : application/x-truetype-font\n",
      "  Stream #0:14: Attachment: ttf\n",
      "    Metadata:\n",
      "      filename        : ARIALNB.TTF\n",
      "      mimetype        : application/x-truetype-font\n",
      "  Stream #0:15: Attachment: ttf\n",
      "    Metadata:\n",
      "      filename        : arial_1.ttf\n",
      "      mimetype        : application/x-truetype-font\n",
      "  Stream #0:16: Attachment: ttf\n",
      "    Metadata:\n",
      "      filename        : ariblk_1.ttf\n",
      "      mimetype        : application/x-truetype-font\n",
      "  Stream #0:17: Attachment: ttf\n",
      "    Metadata:\n",
      "      filename        : balonxb.ttf\n",
      "      mimetype        : application/x-truetype-font\n",
      "  Stream #0:18: Attachment: ttf\n",
      "    Metadata:\n",
      "      filename        : BelweBdBTBold.ttf\n",
      "      mimetype        : application/x-truetype-font\n",
      "  Stream #0:19: Attachment: ttf\n",
      "    Metadata:\n",
      "      filename        : BRITANIC.TTF\n",
      "      mimetype        : application/x-truetype-font\n",
      "  Stream #0:20: Attachment: ttf\n",
      "    Metadata:\n",
      "      filename        : CHILLER.TTF\n",
      "      mimetype        : application/x-truetype-font\n",
      "  Stream #0:21: Attachment: ttf\n",
      "    Metadata:\n",
      "      filename        : comicbd_0.ttf\n",
      "      mimetype        : application/x-truetype-font\n",
      "  Stream #0:22: Attachment: ttf\n",
      "    Metadata:\n",
      "      filename        : comici_0.ttf\n",
      "      mimetype        : application/x-truetype-font\n",
      "  Stream #0:23: Attachment: ttf\n",
      "    Metadata:\n",
      "      filename        : comicz_0.ttf\n",
      "      mimetype        : application/x-truetype-font\n",
      "  Stream #0:24: Attachment: ttf\n",
      "    Metadata:\n",
      "      filename        : comic_0.ttf\n",
      "      mimetype        : application/x-truetype-font\n",
      "  Stream #0:25: Attachment: ttf\n",
      "    Metadata:\n",
      "      filename        : consolab_0.ttf\n",
      "      mimetype        : application/x-truetype-font\n",
      "  Stream #0:26: Attachment: ttf\n",
      "    Metadata:\n",
      "      filename        : COOPBL.ttf\n",
      "      mimetype        : application/x-truetype-font\n",
      "  Stream #0:27: Attachment: ttf\n",
      "    Metadata:\n",
      "      filename        : courbd_1.ttf\n",
      "      mimetype        : application/x-truetype-font\n",
      "  Stream #0:28: Attachment: ttf\n",
      "    Metadata:\n",
      "      filename        : cour_1.ttf\n",
      "      mimetype        : application/x-truetype-font\n",
      "  Stream #0:29: Attachment: ttf\n",
      "    Metadata:\n",
      "      filename        : DejaVuSans-Bold.ttf\n",
      "      mimetype        : application/x-truetype-font\n",
      "  Stream #0:30: Attachment: ttf\n",
      "    Metadata:\n",
      "      filename        : DejaVuSansCondensed-Bold.ttf\n",
      "      mimetype        : application/x-truetype-font\n",
      "  Stream #0:31: Attachment: ttf\n",
      "    Metadata:\n",
      "      filename        : domcasn.ttf\n",
      "      mimetype        : application/x-truetype-font\n",
      "  Stream #0:32: Attachment: ttf\n",
      "    Metadata:\n",
      "      filename        : ebrimabd_0.ttf\n",
      "      mimetype        : application/x-truetype-font\n",
      "  Stream #0:33: Attachment: ttf\n",
      "    Metadata:\n",
      "      filename        : Eraser.ttf\n",
      "      mimetype        : application/x-truetype-font\n",
      "  Stream #0:34: Attachment: ttf\n",
      "    Metadata:\n",
      "      filename        : FirstGrader.ttf\n",
      "      mimetype        : application/x-truetype-font\n",
      "  Stream #0:35: Attachment: ttf\n",
      "    Metadata:\n",
      "      filename        : Freeh471.ttf\n",
      "      mimetype        : application/x-truetype-font\n",
      "  Stream #0:36: Attachment: ttf\n",
      "    Metadata:\n",
      "      filename        : FRHND471.TTF\n",
      "      mimetype        : application/x-truetype-font\n",
      "  Stream #0:37: Attachment: ttf\n",
      "    Metadata:\n",
      "      filename        : Garamond Bold font.ttf\n",
      "      mimetype        : application/x-truetype-font\n",
      "  Stream #0:38: Attachment: ttf\n",
      "    Metadata:\n",
      "      filename        : georgiab_0.ttf\n",
      "      mimetype        : application/x-truetype-font\n",
      "  Stream #0:39: Attachment: ttf\n",
      "    Metadata:\n",
      "      filename        : georgiai_0.ttf\n",
      "      mimetype        : application/x-truetype-font\n",
      "  Stream #0:40: Attachment: ttf\n",
      "    Metadata:\n",
      "      filename        : georgiaz_0.ttf\n",
      "      mimetype        : application/x-truetype-font\n",
      "  Stream #0:41: Attachment: ttf\n",
      "    Metadata:\n",
      "      filename        : georgia_0.ttf\n",
      "      mimetype        : application/x-truetype-font\n",
      "  Stream #0:42: Attachment: ttf\n",
      "    Metadata:\n",
      "      filename        : impact_0.ttf\n",
      "      mimetype        : application/x-truetype-font\n",
      "  Stream #0:43: Attachment: ttf\n",
      "    Metadata:\n",
      "      filename        : Impress.ttf\n",
      "      mimetype        : application/x-truetype-font\n",
      "  Stream #0:44: Attachment: ttf\n",
      "    Metadata:\n",
      "      filename        : JAPAB_.TTF\n",
      "      mimetype        : application/x-truetype-font\n",
      "  Stream #0:45: Attachment: ttf\n",
      "    Metadata:\n",
      "      filename        : Rubik-Bold.ttf\n",
      "      mimetype        : application/x-truetype-font\n",
      "  Stream #0:46: Attachment: ttf\n",
      "    Metadata:\n",
      "      filename        : Rubik-Light.ttf\n",
      "      mimetype        : application/x-truetype-font\n",
      "  Stream #0:47: Attachment: ttf\n",
      "    Metadata:\n",
      "      filename        : Rubik-Regular.ttf\n",
      "      mimetype        : application/x-truetype-font\n",
      "  Stream #0:48: Attachment: ttf\n",
      "    Metadata:\n",
      "      filename        : segoeprb_0.ttf\n",
      "      mimetype        : application/x-truetype-font\n",
      "  Stream #0:49: Attachment: ttf\n",
      "    Metadata:\n",
      "      filename        : SQR721KN.TTF\n",
      "      mimetype        : application/x-truetype-font\n",
      "  Stream #0:50: Attachment: ttf\n",
      "    Metadata:\n",
      "      filename        : SqueakyChalkSound.ttf\n",
      "      mimetype        : application/x-truetype-font\n",
      "  Stream #0:51: Attachment: ttf\n",
      "    Metadata:\n",
      "      filename        : STAC222N.TTF\n",
      "      mimetype        : application/x-truetype-font\n",
      "  Stream #0:52: Attachment: ttf\n",
      "    Metadata:\n",
      "      filename        : Stacc222.ttf\n",
      "      mimetype        : application/x-truetype-font\n",
      "  Stream #0:53: Attachment: ttf\n",
      "    Metadata:\n",
      "      filename        : staccato 555 bt.ttf\n",
      "      mimetype        : application/x-truetype-font\n",
      "  Stream #0:54: Attachment: ttf\n",
      "    Metadata:\n",
      "      filename        : Swis721_BT_Bold.ttf\n",
      "      mimetype        : application/x-truetype-font\n",
      "  Stream #0:55: Attachment: ttf\n",
      "    Metadata:\n",
      "      filename        : tahomabd_0.ttf\n",
      "      mimetype        : application/x-truetype-font\n",
      "  Stream #0:56: Attachment: ttf\n",
      "    Metadata:\n",
      "      filename        : tahoma_1.ttf\n",
      "      mimetype        : application/x-truetype-font\n",
      "  Stream #0:57: Attachment: ttf\n",
      "    Metadata:\n",
      "      filename        : timesbd_1.ttf\n",
      "      mimetype        : application/x-truetype-font\n",
      "  Stream #0:58: Attachment: ttf\n",
      "    Metadata:\n",
      "      filename        : timesbi_1.ttf\n",
      "      mimetype        : application/x-truetype-font\n",
      "  Stream #0:59: Attachment: ttf\n",
      "    Metadata:\n",
      "      filename        : timesi_1.ttf\n",
      "      mimetype        : application/x-truetype-font\n",
      "  Stream #0:60: Attachment: ttf\n",
      "    Metadata:\n",
      "      filename        : times_3.ttf\n",
      "      mimetype        : application/x-truetype-font\n",
      "  Stream #0:61: Attachment: ttf\n",
      "    Metadata:\n",
      "      filename        : Tonic Regular.ttf\n",
      "      mimetype        : application/x-truetype-font\n",
      "  Stream #0:62: Attachment: ttf\n",
      "    Metadata:\n",
      "      filename        : trebucbd_0.ttf\n",
      "      mimetype        : application/x-truetype-font\n",
      "  Stream #0:63: Attachment: ttf\n",
      "    Metadata:\n",
      "      filename        : trebucbi_0.ttf\n",
      "      mimetype        : application/x-truetype-font\n",
      "  Stream #0:64: Attachment: ttf\n",
      "    Metadata:\n",
      "      filename        : trebucit_0.ttf\n",
      "      mimetype        : application/x-truetype-font\n",
      "  Stream #0:65: Attachment: ttf\n",
      "    Metadata:\n",
      "      filename        : trebuc_0.ttf\n",
      "      mimetype        : application/x-truetype-font\n",
      "  Stream #0:66: Attachment: ttf\n",
      "    Metadata:\n",
      "      filename        : VAGRoundedBT.ttf\n",
      "      mimetype        : application/x-truetype-font\n",
      "  Stream #0:67: Attachment: ttf\n",
      "    Metadata:\n",
      "      filename        : verdanab_0.ttf\n",
      "      mimetype        : application/x-truetype-font\n",
      "  Stream #0:68: Attachment: ttf\n",
      "    Metadata:\n",
      "      filename        : verdanaz_0.ttf\n",
      "      mimetype        : application/x-truetype-font\n",
      "  Stream #0:69: Attachment: ttf\n",
      "    Metadata:\n",
      "      filename        : verdana_0.ttf\n",
      "      mimetype        : application/x-truetype-font\n",
      "  Stream #0:70: Attachment: ttf\n",
      "    Metadata:\n",
      "      filename        : AdobeArabic-Bold.otf\n",
      "      mimetype        : application/x-truetype-font\n",
      "  Stream #0:71: Attachment: ttf\n",
      "    Metadata:\n",
      "      filename        : AdobeArabic-BoldItalic.otf\n",
      "      mimetype        : application/x-truetype-font\n",
      "  Stream #0:72: Attachment: ttf\n",
      "    Metadata:\n",
      "      filename        : AdobeArabic-Italic.otf\n",
      "      mimetype        : application/x-truetype-font\n",
      "  Stream #0:73: Attachment: ttf\n",
      "    Metadata:\n",
      "      filename        : AdobeArabic-Regular.otf\n",
      "      mimetype        : application/x-truetype-font\n",
      "Stream mapping:\n",
      "  Stream #0:1 -> #0:0 (aac (native) -> pcm_s16le (native))\n",
      "Press [q] to stop, [?] for help\n",
      "Output #0, wav, to 'extracted_audio.wav':\n",
      "  Metadata:\n",
      "    ISFT            : Lavf58.76.100\n",
      "  Chapters:\n",
      "    Chapter #0:0: start 0.000000, end 11.000000\n",
      "      Metadata:\n",
      "        title           : Prologue\n",
      "    Chapter #0:1: start 11.000000, end 101.000000\n",
      "      Metadata:\n",
      "        title           : Opening\n",
      "    Chapter #0:2: start 101.000000, end 120.000000\n",
      "      Metadata:\n",
      "        title           : Episode\n",
      "    Chapter #0:3: start 120.000000, end 1276.000000\n",
      "      Metadata:\n",
      "        title           : Recap End\n",
      "    Chapter #0:4: start 1276.000000, end 1306.000000\n",
      "      Metadata:\n",
      "        title           : Credits Start\n",
      "    Chapter #0:5: start 1306.000000, end 1396.000000\n",
      "      Metadata:\n",
      "        title           : Credits End\n",
      "    Chapter #0:6: start 1396.000000, end 1430.976000\n",
      "      Metadata:\n",
      "        title           : Preview Start\n",
      "  Stream #0:0(jpn): Audio: pcm_s16le ([1][0][0][0] / 0x0001), 44100 Hz, stereo, s16, 1411 kb/s (default)\n",
      "    Metadata:\n",
      "      BPS             : 128000\n",
      "      DURATION        : 00:23:50.976000000\n",
      "      NUMBER_OF_FRAMES: 61627\n",
      "      NUMBER_OF_BYTES : 22895619\n",
      "      _STATISTICS_WRITING_APP: mkvmerge v86.0 ('Winter') 64-bit\n",
      "      _STATISTICS_WRITING_DATE_UTC: 2024-08-18 15:01:56\n",
      "      _STATISTICS_TAGS: BPS DURATION NUMBER_OF_FRAMES NUMBER_OF_BYTES\n",
      "      encoder         : Lavc58.134.100 pcm_s16le\n",
      "size=       4kB time=00:00:00.00 bitrate=N/A speed=   0x    \r"
     ]
    },
    {
     "name": "stderr",
     "output_type": "stream",
     "text": [
      "size=  246508kB time=00:23:50.95 bitrate=1411.2kbits/s speed=1.08e+03x    \n",
      "video:0kB audio:246508kB subtitle:0kB other streams:0kB global headers:0kB muxing overhead: 0.000031%\n",
      "100%|████████████████████████████████████████| 139M/139M [00:00<00:00, 165MiB/s]\n",
      "/workspace/.pyenv_mirror/user/current/lib/python3.12/site-packages/whisper/__init__.py:146: FutureWarning: You are using `torch.load` with `weights_only=False` (the current default value), which uses the default pickle module implicitly. It is possible to construct malicious pickle data which will execute arbitrary code during unpickling (See https://github.com/pytorch/pytorch/blob/main/SECURITY.md#untrusted-models for more details). In a future release, the default value for `weights_only` will be flipped to `True`. This limits the functions that could be executed during unpickling. Arbitrary objects will no longer be allowed to be loaded via this mode unless they are explicitly allowlisted by the user via `torch.serialization.add_safe_globals`. We recommend you start setting `weights_only=True` for any use case where you don't have full control of the loaded file. Please open an issue on GitHub for any issues related to this experimental feature.\n",
      "  checkpoint = torch.load(fp, map_location=device)\n",
      "/workspace/.pyenv_mirror/user/current/lib/python3.12/site-packages/whisper/transcribe.py:115: UserWarning: FP16 is not supported on CPU; using FP32 instead\n",
      "  warnings.warn(\"FP16 is not supported on CPU; using FP32 instead\")\n"
     ]
    }
   ],
   "source": [
    "import whisper\n",
    "import ffmpeg\n",
    "from transformers import MarianMTModel, MarianTokenizer\n",
    "\n",
    "def extract_audio(video_file, audio_file):\n",
    "    \"\"\"Extracts audio from video.\"\"\"\n",
    "    ffmpeg.input(video_file).output(audio_file).run(overwrite_output=True)\n",
    "\n",
    "def transcribe_audio(audio_file, language):\n",
    "    \"\"\"Transcribes audio to text using Whisper in the specified language.\"\"\"\n",
    "    model = whisper.load_model(\"base\")\n",
    "    result = model.transcribe(audio_file, language=language)  # Use the specified language\n",
    "    return result['segments']\n",
    "\n",
    "def format_time(seconds):\n",
    "    \"\"\"Formats time from seconds to SRT format (hh:mm:ss,ms).\"\"\"\n",
    "    hours, remainder = divmod(seconds, 3600)\n",
    "    minutes, seconds = divmod(remainder, 60)\n",
    "    milliseconds = int((seconds - int(seconds)) * 1000)\n",
    "    return f\"{int(hours):02}:{int(minutes):02}:{int(seconds):02},{milliseconds:03}\"\n",
    "\n",
    "def translate_text_marian(text, model, tokenizer):\n",
    "    \"\"\"Translates text using MarianMT.\"\"\"\n",
    "    translated = model.generate(**tokenizer.prepare_seq2seq_batch([text], return_tensors=\"pt\"))\n",
    "    return tokenizer.decode(translated[0], skip_special_tokens=True)\n",
    "\n",
    "def generate_srt(segments, srt_file, model=None, tokenizer=None):\n",
    "    \"\"\"Generates an SRT file from transcription segments.\n",
    "\n",
    "    If model and tokenizer are None, the subtitles will be in the original language of the video.\n",
    "    \"\"\"\n",
    "    with open(srt_file, \"w\") as file:\n",
    "        for i, segment in enumerate(segments):\n",
    "            start_time = format_time(segment['start'])\n",
    "            end_time = format_time(segment['end'])\n",
    "            text = segment['text'].strip()\n",
    "\n",
    "            if model and tokenizer:\n",
    "                text = translate_text_marian(text, model, tokenizer)\n",
    "\n",
    "            file.write(f\"{i + 1}\\n{start_time} --> {end_time}\\n{text}\\n\\n\")\n",
    "\n",
    "def main(video_file, output_srt, language, target_language=None):\n",
    "    audio_file = \"extracted_audio.wav\"\n",
    "    extract_audio(video_file, audio_file)\n",
    "    segments = transcribe_audio(audio_file, language)\n",
    "\n",
    "    model, tokenizer = None, None\n",
    "    if target_language is not None:\n",
    "        print(f\"Translating subtitles to: {target_language}\")\n",
    "        model_name = f\"Helsinki-NLP/opus-mt-{language}-{target_language}\"\n",
    "        tokenizer = MarianTokenizer.from_pretrained(model_name)\n",
    "        model = MarianMTModel.from_pretrained(model_name)\n",
    "\n",
    "    generate_srt(segments, output_srt, model, tokenizer)\n",
    "    print(f\"Subtitle file '{output_srt}' generated successfully.\")\n",
    "\n",
    "if __name__ == \"__main__\":\n",
    "    video_file = \"a.mkv\"  # Replace with your video file path\n",
    "    output_srt = \"subtitles.srt\"\n",
    "    language = \"ja\"  # Specify the language code of the video (e.g., \"ja\" for Japanese)\n",
    "    target_language = \"en\"  # Set to None for subtitles in the original language, or specify a different language code\n",
    "    main(video_file, output_srt, language, target_language)\n"
   ]
  }
 ],
 "metadata": {
  "kernelspec": {
   "display_name": "Python 3",
   "language": "python",
   "name": "python3"
  },
  "language_info": {
   "codemirror_mode": {
    "name": "ipython",
    "version": 3
   },
   "file_extension": ".py",
   "mimetype": "text/x-python",
   "name": "python",
   "nbconvert_exporter": "python",
   "pygments_lexer": "ipython3",
   "version": "3.12.4"
  }
 },
 "nbformat": 4,
 "nbformat_minor": 2
}
